HIERARCHY
ROOT pelvis
{
  OFFSET 0 100 0
  CHANNELS 6 Xposition Yposition Zposition Zrotation Xrotation Yrotation
  JOINT pelvis_right_femur
  {
    OFFSET -10.78128 -3.44521 -0.5502486
    CHANNELS 3 Zrotation Xrotation Yrotation
    JOINT right_femur_tibia
    {
      OFFSET -0.8047443 -44.0398 -0.1307829
      CHANNELS 3 Zrotation Xrotation Yrotation
      JOINT right_tibia_foot
      {
        OFFSET 3.006224 -47.83518 -5
        CHANNELS 3 Zrotation Xrotation Yrotation
        End Site
        {
          OFFSET 0 -5 15
        }
      }
    }
  }
  JOINT pelvis_left_femur
  {
    OFFSET 10.78128 -3.44521 -0.5502486
    CHANNELS 3 Zrotation Xrotation Yrotation
    JOINT left_femur_tibia
    {
      OFFSET 0.8047443 -44.0398 -0.1307829
      CHANNELS 3 Zrotation Xrotation Yrotation
      JOINT left_tibia_foot
      {
        OFFSET -4.370144 -48.10324 -4.275266
        CHANNELS 3 Zrotation Xrotation Yrotation
        End Site
        {
          OFFSET 0 -5 15
        }
      }
    }
  }
  JOINT pelvis_spine1
  {
    OFFSET 0 6.468898 -3.129235
    CHANNELS 3 Zrotation Xrotation Yrotation
    JOINT spine1
    {
      OFFSET 0 23.15396 4.99043
      CHANNELS 3 Zrotation Xrotation Yrotation
      JOINT spine2
      {
        OFFSET 0 20.79997 -5.064912
        CHANNELS 3 Zrotation Xrotation Yrotation
        JOINT neck
        {
          OFFSET 0 14.38658 9.616178
          CHANNELS 3 Zrotation Xrotation Yrotation
          End Site
          {
            OFFSET 0 20 0
          }
        }
      }
      JOINT right_manubrium
      {
        OFFSET -5.722621 16.35077 3.967754
        CHANNELS 3 Zrotation Xrotation Yrotation
        JOINT right_clavicle
        {
          OFFSET -13.16364 1.694482 -4.693211
          CHANNELS 3 Zrotation Xrotation Yrotation
          JOINT right_humerus
          {
            OFFSET -28.5034 -0.3100689 -2.792744
            CHANNELS 3 Zrotation Xrotation Yrotation
            JOINT right_radius
            {
              OFFSET -25.15693 0.02248979 -1.271978
              CHANNELS 3 Zrotation Xrotation Yrotation
              End Site
              {
                OFFSET -15 0 0
              }
            }
          }
        }
      }
      JOINT left_manubrium
      {
        OFFSET 5.722621 16.35077 3.967754
        CHANNELS 3 Zrotation Xrotation Yrotation
        JOINT left_clavicle
        {
          OFFSET 13.16364 1.694482 -4.693211
          CHANNELS 3 Zrotation Xrotation Yrotation
          JOINT left_humerus
          {
            OFFSET 29.39168 -1.063119 -2.237045
            CHANNELS 3 Zrotation Xrotation Yrotation
            JOINT left_radius
            {
              OFFSET 24.59957 -0.9528479 0.9047498
              CHANNELS 3 Zrotation Xrotation Yrotation
              End Site
              {
                OFFSET 15 -0 -0
              }
            }
          }
        }
      }
    }
  }
}
MOTION
Frames: 21
Frame Time: 0.0416666666667
3.125507 108.3988 104.7352 -2.248925 -10.1494 -0.3708422 8.363518 16.89515 -1.10108 -0 14.26545 -0 -8.99836 -12.219 -3.717577 4.798151 -14.18921 -4.817533 -0 10.52261 -0 -0.989161 -2.358378 15.20289 2.05703 -4.663597 5.861832 1.579649 15.51052 -6.11792 2.34225 20.68204 0.2526934 -2.00669 -21.03429 4.993677 -3.854603 -32.22386 11.93328 90.27127 7.826837 -8.869921 -0 0 28.45243 -26.78662 17.48663 17.44648 1.336253 -20.83388 -7.547318 -99.20746 16.43819 36.23442 0 0 -1.119122 -2.836972 15.8498 12.97919
3.879738 108.389 110.385 -2.383604 -10.11892 -1.136253 8.363518 16.89515 -1.10108 -0 14.26545 -0 -8.99836 -12.219 -3.717577 4.798151 -14.18921 -4.817533 -0 10.52261 -0 -0.989161 -2.358378 15.20289 2.05703 -4.663597 5.861832 1.579649 15.51052 -6.11792 2.34225 20.68204 0.2526934 -2.00669 -21.03429 4.993677 -3.854603 -32.22386 11.93328 90.27127 7.826837 -8.869921 -0 0 28.45243 -26.78662 17.48663 17.44648 1.336253 -20.83388 -7.547318 -99.20746 16.43819 36.23442 0 0 -1.119122 -2.836972 15.8498 12.97919
4.559548 108.3792 116.0442 -2.517844 -10.08668 -1.901515 8.363518 16.89515 -1.10108 -0 14.26545 -0 -8.99836 -12.219 -3.717577 4.798151 -14.18921 -4.817533 -0 10.52261 -0 -0.989161 -2.358378 15.20289 2.05703 -4.663597 5.861832 1.579649 15.51052 -6.11792 2.34225 20.68204 0.2526934 -2.00669 -21.03429 4.993677 -3.854603 -32.22386 11.93328 90.27127 7.826837 -8.869921 -0 0 28.45243 -26.78662 17.48663 17.44648 1.336253 -20.83388 -7.547318 -99.20746 16.43819 36.23442 0 0 -1.119122 -2.836972 15.8498 12.97919
5.164819 108.3694 121.7118 -2.651621 -10.05267 -2.666619 8.363518 16.89515 -1.10108 -0 14.26545 -0 -8.99836 -12.219 -3.717577 4.798151 -14.18921 -4.817533 -0 10.52261 -0 -0.989161 -2.358378 15.20289 2.05703 -4.663597 5.861832 1.579649 15.51052 -6.11792 2.34225 20.68204 0.2526934 -2.00669 -21.03429 4.993677 -3.854603 -32.22386 11.93328 90.27127 7.826837 -8.869921 -0 0 28.45243 -26.78662 17.48663 17.44648 1.336253 -20.83388 -7.547318 -99.20746 16.43819 36.23442 0 0 -1.119122 -2.836972 15.8498 12.97919
5.695446 108.3596 127.3869 -2.78491 -10.01691 -3.431558 8.363518 16.89515 -1.10108 -0 14.26545 -0 -8.99836 -12.219 -3.717577 4.798151 -14.18921 -4.817533 -0 10.52261 -0 -0.989161 -2.358378 15.20289 2.05703 -4.663597 5.861832 1.579649 15.51052 -6.11792 2.34225 20.68204 0.2526934 -2.00669 -21.03429 4.993677 -3.854603 -32.22386 11.93328 90.27127 7.826837 -8.869921 -0 0 28.45243 -26.78662 17.48663 17.44648 1.336253 -20.83388 -7.547318 -99.20746 16.43819 36.23442 0 0 -1.119122 -2.836972 15.8498 12.97919
6.151337 108.3498 133.0686 -2.917688 -9.979395 -4.196324 8.363518 16.89515 -1.10108 -0 14.26545 -0 -8.99836 -12.219 -3.717577 4.798151 -14.18921 -4.817533 -0 10.52261 -0 -0.989161 -2.358378 15.20289 2.05703 -4.663597 5.861832 1.579649 15.51052 -6.11792 2.34225 20.68204 0.2526934 -2.00669 -21.03429 4.993677 -3.854603 -32.22386 11.93328 90.27127 7.826837 -8.869921 -0 0 28.45243 -26.78662 17.48663 17.44648 1.336253 -20.83388 -7.547318 -99.20746 16.43819 36.23442 0 0 -1.119122 -2.836972 15.8498 12.97919
6.532414 108.34 138.7557 -3.04993 -9.940142 -4.96091 8.363518 16.89515 -1.10108 -0 14.26545 -0 -8.99836 -12.219 -3.717577 4.798151 -14.18921 -4.817533 -0 10.52261 -0 -0.989161 -2.358378 15.20289 2.05703 -4.663597 5.861832 1.579649 15.51052 -6.11792 2.34225 20.68204 0.2526934 -2.00669 -21.03429 4.993677 -3.854603 -32.22386 11.93328 90.27127 7.826837 -8.869921 -0 0 28.45243 -26.78662 17.48663 17.44648 1.336253 -20.83388 -7.547318 -99.20746 16.43819 36.23442 0 0 -1.119122 -2.836972 15.8498 12.97919
6.838611 108.3302 144.4473 -3.181613 -9.899154 -5.725308 8.363518 16.89515 -1.10108 -0 14.26545 -0 -8.99836 -12.219 -3.717577 4.798151 -14.18921 -4.817533 -0 10.52261 -0 -0.989161 -2.358378 15.20289 2.05703 -4.663597 5.861832 1.579649 15.51052 -6.11792 2.34225 20.68204 0.2526934 -2.00669 -21.03429 4.993677 -3.854603 -32.22386 11.93328 90.27127 7.826837 -8.869921 -0 0 28.45243 -26.78662 17.48663 17.44648 1.336253 -20.83388 -7.547318 -99.20746 16.43819 36.23442 0 0 -1.119122 -2.836972 15.8498 12.97919
7.069873 108.3204 150.1425 -3.312712 -9.856439 -6.489511 8.363518 16.89515 -1.10108 -0 14.26545 -0 -8.99836 -12.219 -3.717577 4.798151 -14.18921 -4.817533 -0 10.52261 -0 -0.989161 -2.358378 15.20289 2.05703 -4.663597 5.861832 1.579649 15.51052 -6.11792 2.34225 20.68204 0.2526934 -2.00669 -21.03429 4.993677 -3.854603 -32.22386 11.93328 90.27127 7.826837 -8.869921 -0 0 28.45243 -26.78662 17.48663 17.44648 1.336253 -20.83388 -7.547318 -99.20746 16.43819 36.23442 0 0 -1.119122 -2.836972 15.8498 12.97919
7.226162 108.3106 155.8402 -3.443203 -9.812006 -7.253513 8.363518 16.89515 -1.10108 -0 14.26545 -0 -8.99836 -12.219 -3.717577 4.798151 -14.18921 -4.817533 -0 10.52261 -0 -0.989161 -2.358378 15.20289 2.05703 -4.663597 5.861832 1.579649 15.51052 -6.11792 2.34225 20.68204 0.2526934 -2.00669 -21.03429 4.993677 -3.854603 -32.22386 11.93328 90.27127 7.826837 -8.869921 -0 0 28.45243 -26.78662 17.48663 17.44648 1.336253 -20.83388 -7.547318 -99.20746 16.43819 36.23442 0 0 -1.119122 -2.836972 15.8498 12.97919
7.307451 108.3008 161.5395 -3.573065 -9.765863 -8.017305 8.363518 16.89515 -1.10108 -0 14.26545 -0 -8.99836 -12.219 -3.717577 4.798151 -14.18921 -4.817533 -0 10.52261 -0 -0.989161 -2.358378 15.20289 2.05703 -4.663597 5.861832 1.579649 15.51052 -6.11792 2.34225 20.68204 0.2526934 -2.00669 -21.03429 4.993677 -3.854603 -32.22386 11.93328 90.27127 7.826837 -8.869921 -0 0 28.45243 -26.78662 17.48663 17.44648 1.336253 -20.83388 -7.547318 -99.20746 16.43819 36.23442 0 0 -1.119122 -2.836972 15.8498 12.97919
7.313724 108.291 167.2394 -3.702272 -9.718018 -8.780882 8.363518 16.89515 -1.10108 -0 14.26545 -0 -8.99836 -12.219 -3.717577 4.798151 -14.18921 -4.817533 -0 10.52261 -0 -0.989161 -2.358378 15.20289 2.05703 -4.663597 5.861832 1.579649 15.51052 -6.11792 2.34225 20.68204 0.2526934 -2.00669 -21.03429 4.993677 -3.854603 -32.22386 11.93328 90.27127 7.826837 -8.869921 -0 0 28.45243 -26.78662 17.48663 17.44648 1.336253 -20.83388 -7.547318 -99.20746 16.43819 36.23442 0 0 -1.119122 -2.836972 15.8498 12.97919
7.244981 108.2812 172.9389 -3.830803 -9.668481 -9.544237 8.363518 16.89515 -1.10108 -0 14.26545 -0 -8.99836 -12.219 -3.717577 4.798151 -14.18921 -4.817533 -0 10.52261 -0 -0.989161 -2.358378 15.20289 2.05703 -4.663597 5.861832 1.579649 15.51052 -6.11792 2.34225 20.68204 0.2526934 -2.00669 -21.03429 4.993677 -3.854603 -32.22386 11.93328 90.27127 7.826837 -8.869921 -0 0 28.45243 -26.78662 17.48663 17.44648 1.336253 -20.83388 -7.547318 -99.20746 16.43819 36.23442 0 0 -1.119122 -2.836972 15.8498 12.97919
7.101235 108.2714 178.6369 -3.958633 -9.61726 -10.30736 8.363518 16.89515 -1.10108 -0 14.26545 -0 -8.99836 -12.219 -3.717577 4.798151 -14.18921 -4.817533 -0 10.52261 -0 -0.989161 -2.358378 15.20289 2.05703 -4.663597 5.861832 1.579649 15.51052 -6.11792 2.34225 20.68204 0.2526934 -2.00669 -21.03429 4.993677 -3.854603 -32.22386 11.93328 90.27127 7.826837 -8.869921 -0 0 28.45243 -26.78662 17.48663 17.44648 1.336253 -20.83388 -7.547318 -99.20746 16.43819 36.23442 0 0 -1.119122 -2.836972 15.8498 12.97919
6.882509 108.2616 184.3326 -4.085741 -9.564365 -11.07025 8.363518 16.89515 -1.10108 -0 14.26545 -0 -8.99836 -12.219 -3.717577 4.798151 -14.18921 -4.817533 -0 10.52261 -0 -0.989161 -2.358378 15.20289 2.05703 -4.663597 5.861832 1.579649 15.51052 -6.11792 2.34225 20.68204 0.2526934 -2.00669 -21.03429 4.993677 -3.854603 -32.22386 11.93328 90.27127 7.826837 -8.869921 -0 0 28.45243 -26.78662 17.48663 17.44648 1.336253 -20.83388 -7.547318 -99.20746 16.43819 36.23442 0 0 -1.119122 -2.836972 15.8498 12.97919
6.588842 108.2519 190.0249 -4.212103 -9.509807 -11.8329 8.363518 16.89515 -1.10108 -0 14.26545 -0 -8.99836 -12.219 -3.717577 4.798151 -14.18921 -4.817533 -0 10.52261 -0 -0.989161 -2.358378 15.20289 2.05703 -4.663597 5.861832 1.579649 15.51052 -6.11792 2.34225 20.68204 0.2526934 -2.00669 -21.03429 4.993677 -3.854603 -32.22386 11.93328 90.27127 7.826837 -8.869921 -0 0 28.45243 -26.78662 17.48663 17.44648 1.336253 -20.83388 -7.547318 -99.20746 16.43819 36.23442 0 0 -1.119122 -2.836972 15.8498 12.97919
6.220285 108.2421 195.7129 -4.337697 -9.453595 -12.59531 8.363518 16.89515 -1.10108 -0 14.26545 -0 -8.99836 -12.219 -3.717577 4.798151 -14.18921 -4.817533 -0 10.52261 -0 -0.989161 -2.358378 15.20289 2.05703 -4.663597 5.861832 1.579649 15.51052 -6.11792 2.34225 20.68204 0.2526934 -2.00669 -21.03429 4.993677 -3.854603 -32.22386 11.93328 90.27127 7.826837 -8.869921 -0 0 28.45243 -26.78662 17.48663 17.44648 1.336253 -20.83388 -7.547318 -99.20746 16.43819 36.23442 0 0 -1.119122 -2.836972 15.8498 12.97919
5.776901 108.2323 201.3955 -4.462502 -9.395741 -13.35746 8.363518 16.89515 -1.10108 -0 14.26545 -0 -8.99836 -12.219 -3.717577 4.798151 -14.18921 -4.817533 -0 10.52261 -0 -0.989161 -2.358378 15.20289 2.05703 -4.663597 5.861832 1.579649 15.51052 -6.11792 2.34225 20.68204 0.2526934 -2.00669 -21.03429 4.993677 -3.854603 -32.22386 11.93328 90.27127 7.826837 -8.869921 -0 0 28.45243 -26.78662 17.48663 17.44648 1.336253 -20.83388 -7.547318 -99.20746 16.43819 36.23442 0 0 -1.119122 -2.836972 15.8498 12.97919
5.258767 108.2225 207.0717 -4.586494 -9.336253 -14.11935 8.363518 16.89515 -1.10108 -0 14.26545 -0 -8.99836 -12.219 -3.717577 4.798151 -14.18921 -4.817533 -0 10.52261 -0 -0.989161 -2.358378 15.20289 2.05703 -4.663597 5.861832 1.579649 15.51052 -6.11792 2.34225 20.68204 0.2526934 -2.00669 -21.03429 4.993677 -3.854603 -32.22386 11.93328 90.27127 7.826837 -8.869921 -0 0 28.45243 -26.78662 17.48663 17.44648 1.336253 -20.83388 -7.547318 -99.20746 16.43819 36.23442 0 0 -1.119122 -2.836972 15.8498 12.97919
4.665974 108.2127 212.7407 -4.709653 -9.275145 -14.88098 8.363518 16.89515 -1.10108 -0 14.26545 -0 -8.99836 -12.219 -3.717577 4.798151 -14.18921 -4.817533 -0 10.52261 -0 -0.989161 -2.358378 15.20289 2.05703 -4.663597 5.861832 1.579649 15.51052 -6.11792 2.34225 20.68204 0.2526934 -2.00669 -21.03429 4.993677 -3.854603 -32.22386 11.93328 90.27127 7.826837 -8.869921 -0 0 28.45243 -26.78662 17.48663 17.44648 1.336253 -20.83388 -7.547318 -99.20746 16.43819 36.23442 0 0 -1.119122 -2.836972 15.8498 12.97919
3.998623 108.2029 218.4014 -4.831956 -9.212427 -15.64234 8.363518 16.89515 -1.10108 -0 14.26545 -0 -8.99836 -12.219 -3.717577 4.798151 -14.18921 -4.817533 -0 10.52261 -0 -0.989161 -2.358378 15.20289 2.05703 -4.663597 5.861832 1.579649 15.51052 -6.11792 2.34225 20.68204 0.2526934 -2.00669 -21.03429 4.993677 -3.854603 -32.22386 11.93328 90.27127 7.826837 -8.869921 -0 0 28.45243 -26.78662 17.48663 17.44648 1.336253 -20.83388 -7.547318 -99.20746 16.43819 36.23442 0 0 -1.119122 -2.836972 15.8498 12.97919
